<?xml version="1.0" encoding="UTF-8" standalone="no"?>
<!DOCTYPE svg PUBLIC "-//W3C//DTD SVG 1.1//EN"
 "http://www.w3.org/Graphics/SVG/1.1/DTD/svg11.dtd">
<!-- Generated by graphviz version 2.40.1 (20161225.0304)
 -->
<!-- Title: G Pages: 1 -->
<svg width="260pt" height="404pt"
 viewBox="0.00 0.00 260.00 404.00" xmlns="http://www.w3.org/2000/svg" xmlns:xlink="http://www.w3.org/1999/xlink">
<g id="graph0" class="graph" transform="scale(1 1) rotate(0) translate(4 400)">
<title>G</title>
<polygon fill="#ffffff" stroke="transparent" points="-4,4 -4,-400 256,-400 256,4 -4,4"/>
<!-- 39b7c8739c2b4aa49daf28d6145e8929 -->
<g id="node1" class="node">
<title>39b7c8739c2b4aa49daf28d6145e8929</title>
<ellipse fill="#ffffff" stroke="#000000" cx="153" cy="-378" rx="18" ry="18"/>
<text text-anchor="middle" x="153" y="-374.3" font-family="Times,serif" font-size="14.00" fill="#000000">S</text>
</g>
<!-- 45b99a3060744385b51e9f0a788b8c9e -->
<g id="node2" class="node">
<title>45b99a3060744385b51e9f0a788b8c9e</title>
<ellipse fill="#ffffff" stroke="#000000" cx="126" cy="-306" rx="18" ry="18"/>
<text text-anchor="middle" x="126" y="-302.3" font-family="Times,serif" font-size="14.00" fill="#000000">C</text>
</g>
<!-- 39b7c8739c2b4aa49daf28d6145e8929&#45;&gt;45b99a3060744385b51e9f0a788b8c9e -->
<g id="edge8" class="edge">
<title>39b7c8739c2b4aa49daf28d6145e8929&#45;&gt;45b99a3060744385b51e9f0a788b8c9e</title>
<path fill="none" stroke="#000000" d="M146.6014,-360.937C143.407,-352.4186 139.471,-341.9227 135.8982,-332.3952"/>
<polygon fill="#000000" stroke="#000000" points="139.1411,-331.0749 132.3527,-322.9405 132.5868,-333.5328 139.1411,-331.0749"/>
</g>
<!-- 897d79ea16f84eb3815f88bd112c79be -->
<g id="node10" class="node">
<title>897d79ea16f84eb3815f88bd112c79be</title>
<ellipse fill="#ffffff" stroke="#000000" cx="180" cy="-306" rx="18" ry="18"/>
<text text-anchor="middle" x="180" y="-302.3" font-family="Times,serif" font-size="14.00" fill="#000000">C</text>
</g>
<!-- 39b7c8739c2b4aa49daf28d6145e8929&#45;&gt;897d79ea16f84eb3815f88bd112c79be -->
<g id="edge16" class="edge">
<title>39b7c8739c2b4aa49daf28d6145e8929&#45;&gt;897d79ea16f84eb3815f88bd112c79be</title>
<path fill="none" stroke="#000000" d="M159.3986,-360.937C162.593,-352.4186 166.529,-341.9227 170.1018,-332.3952"/>
<polygon fill="#000000" stroke="#000000" points="173.4132,-333.5328 173.6473,-322.9405 166.8589,-331.0749 173.4132,-333.5328"/>
</g>
<!-- c8de521135c0447298ba89bc94d121a7 -->
<g id="node3" class="node">
<title>c8de521135c0447298ba89bc94d121a7</title>
<ellipse fill="#ffffff" stroke="#000000" cx="72" cy="-234" rx="18" ry="18"/>
<text text-anchor="middle" x="72" y="-230.3" font-family="Times,serif" font-size="14.00" fill="#000000">C</text>
</g>
<!-- 45b99a3060744385b51e9f0a788b8c9e&#45;&gt;c8de521135c0447298ba89bc94d121a7 -->
<g id="edge6" class="edge">
<title>45b99a3060744385b51e9f0a788b8c9e&#45;&gt;c8de521135c0447298ba89bc94d121a7</title>
<path fill="none" stroke="#000000" d="M115.0723,-291.4297C107.6066,-281.4754 97.5632,-268.0842 89.0526,-256.7368"/>
<polygon fill="#000000" stroke="#000000" points="91.7115,-254.4486 82.9115,-248.5486 86.1115,-258.6486 91.7115,-254.4486"/>
</g>
<!-- 997f304a8c0a463f9e1635efc93c87d3 -->
<g id="node9" class="node">
<title>997f304a8c0a463f9e1635efc93c87d3</title>
<ellipse fill="#ffffff" stroke="#000000" cx="126" cy="-234" rx="18" ry="18"/>
<text text-anchor="middle" x="126" y="-230.3" font-family="Times,serif" font-size="14.00" fill="#000000">c</text>
</g>
<!-- 45b99a3060744385b51e9f0a788b8c9e&#45;&gt;997f304a8c0a463f9e1635efc93c87d3 -->
<g id="edge7" class="edge">
<title>45b99a3060744385b51e9f0a788b8c9e&#45;&gt;997f304a8c0a463f9e1635efc93c87d3</title>
<path fill="none" stroke="#000000" d="M126,-287.8314C126,-280.131 126,-270.9743 126,-262.4166"/>
<polygon fill="#000000" stroke="#000000" points="129.5001,-262.4132 126,-252.4133 122.5001,-262.4133 129.5001,-262.4132"/>
</g>
<!-- 35a55f30fccf4fe2bf6b90228b1c77e3 -->
<g id="node4" class="node">
<title>35a55f30fccf4fe2bf6b90228b1c77e3</title>
<ellipse fill="#ffffff" stroke="#000000" cx="45" cy="-162" rx="18" ry="18"/>
<text text-anchor="middle" x="45" y="-158.3" font-family="Times,serif" font-size="14.00" fill="#000000">C</text>
</g>
<!-- c8de521135c0447298ba89bc94d121a7&#45;&gt;35a55f30fccf4fe2bf6b90228b1c77e3 -->
<g id="edge4" class="edge">
<title>c8de521135c0447298ba89bc94d121a7&#45;&gt;35a55f30fccf4fe2bf6b90228b1c77e3</title>
<path fill="none" stroke="#000000" d="M65.6014,-216.937C62.407,-208.4186 58.471,-197.9227 54.8982,-188.3952"/>
<polygon fill="#000000" stroke="#000000" points="58.1411,-187.0749 51.3527,-178.9405 51.5868,-189.5328 58.1411,-187.0749"/>
</g>
<!-- 3e6fe23b5a274d9c811af803ca1312fd -->
<g id="node8" class="node">
<title>3e6fe23b5a274d9c811af803ca1312fd</title>
<ellipse fill="#ffffff" stroke="#000000" cx="99" cy="-162" rx="18" ry="18"/>
<text text-anchor="middle" x="99" y="-158.3" font-family="Times,serif" font-size="14.00" fill="#000000">c</text>
</g>
<!-- c8de521135c0447298ba89bc94d121a7&#45;&gt;3e6fe23b5a274d9c811af803ca1312fd -->
<g id="edge5" class="edge">
<title>c8de521135c0447298ba89bc94d121a7&#45;&gt;3e6fe23b5a274d9c811af803ca1312fd</title>
<path fill="none" stroke="#000000" d="M78.3986,-216.937C81.593,-208.4186 85.529,-197.9227 89.1018,-188.3952"/>
<polygon fill="#000000" stroke="#000000" points="92.4132,-189.5328 92.6473,-178.9405 85.8589,-187.0749 92.4132,-189.5328"/>
</g>
<!-- 281a736f1b26486f897fe8d1005b1810 -->
<g id="node5" class="node">
<title>281a736f1b26486f897fe8d1005b1810</title>
<ellipse fill="#ffffff" stroke="#000000" cx="18" cy="-90" rx="18" ry="18"/>
<text text-anchor="middle" x="18" y="-86.3" font-family="Times,serif" font-size="14.00" fill="#000000">C</text>
</g>
<!-- 35a55f30fccf4fe2bf6b90228b1c77e3&#45;&gt;281a736f1b26486f897fe8d1005b1810 -->
<g id="edge2" class="edge">
<title>35a55f30fccf4fe2bf6b90228b1c77e3&#45;&gt;281a736f1b26486f897fe8d1005b1810</title>
<path fill="none" stroke="#000000" d="M38.6014,-144.937C35.407,-136.4186 31.471,-125.9227 27.8982,-116.3952"/>
<polygon fill="#000000" stroke="#000000" points="31.1411,-115.0749 24.3527,-106.9405 24.5868,-117.5328 31.1411,-115.0749"/>
</g>
<!-- 1219f79618fe4f918842a51f3bdcecf1 -->
<g id="node7" class="node">
<title>1219f79618fe4f918842a51f3bdcecf1</title>
<ellipse fill="#ffffff" stroke="#000000" cx="72" cy="-90" rx="18" ry="18"/>
<text text-anchor="middle" x="72" y="-86.3" font-family="Times,serif" font-size="14.00" fill="#000000">c</text>
</g>
<!-- 35a55f30fccf4fe2bf6b90228b1c77e3&#45;&gt;1219f79618fe4f918842a51f3bdcecf1 -->
<g id="edge3" class="edge">
<title>35a55f30fccf4fe2bf6b90228b1c77e3&#45;&gt;1219f79618fe4f918842a51f3bdcecf1</title>
<path fill="none" stroke="#000000" d="M51.3986,-144.937C54.593,-136.4186 58.529,-125.9227 62.1018,-116.3952"/>
<polygon fill="#000000" stroke="#000000" points="65.4132,-117.5328 65.6473,-106.9405 58.8589,-115.0749 65.4132,-117.5328"/>
</g>
<!-- 3b0b2f2947324d0e834642e49f8104b1 -->
<g id="node6" class="node">
<title>3b0b2f2947324d0e834642e49f8104b1</title>
<ellipse fill="#ffffff" stroke="#000000" cx="18" cy="-18" rx="18" ry="18"/>
<text text-anchor="middle" x="18" y="-14.3" font-family="Times,serif" font-size="14.00" fill="#000000">d</text>
</g>
<!-- 281a736f1b26486f897fe8d1005b1810&#45;&gt;3b0b2f2947324d0e834642e49f8104b1 -->
<g id="edge1" class="edge">
<title>281a736f1b26486f897fe8d1005b1810&#45;&gt;3b0b2f2947324d0e834642e49f8104b1</title>
<path fill="none" stroke="#000000" d="M18,-71.8314C18,-64.131 18,-54.9743 18,-46.4166"/>
<polygon fill="#000000" stroke="#000000" points="21.5001,-46.4132 18,-36.4133 14.5001,-46.4133 21.5001,-46.4132"/>
</g>
<!-- f35e9980e60d4239944cbcc8dee60c3e -->
<g id="node11" class="node">
<title>f35e9980e60d4239944cbcc8dee60c3e</title>
<ellipse fill="#ffffff" stroke="#000000" cx="180" cy="-234" rx="18" ry="18"/>
<text text-anchor="middle" x="180" y="-230.3" font-family="Times,serif" font-size="14.00" fill="#000000">C</text>
</g>
<!-- 897d79ea16f84eb3815f88bd112c79be&#45;&gt;f35e9980e60d4239944cbcc8dee60c3e -->
<g id="edge14" class="edge">
<title>897d79ea16f84eb3815f88bd112c79be&#45;&gt;f35e9980e60d4239944cbcc8dee60c3e</title>
<path fill="none" stroke="#000000" d="M180,-287.8314C180,-280.131 180,-270.9743 180,-262.4166"/>
<polygon fill="#000000" stroke="#000000" points="183.5001,-262.4132 180,-252.4133 176.5001,-262.4133 183.5001,-262.4132"/>
</g>
<!-- f2587ccf809b4991b3a211acb67f5bf3 -->
<g id="node17" class="node">
<title>f2587ccf809b4991b3a211acb67f5bf3</title>
<ellipse fill="#ffffff" stroke="#000000" cx="234" cy="-234" rx="18" ry="18"/>
<text text-anchor="middle" x="234" y="-230.3" font-family="Times,serif" font-size="14.00" fill="#000000">c</text>
</g>
<!-- 897d79ea16f84eb3815f88bd112c79be&#45;&gt;f2587ccf809b4991b3a211acb67f5bf3 -->
<g id="edge15" class="edge">
<title>897d79ea16f84eb3815f88bd112c79be&#45;&gt;f2587ccf809b4991b3a211acb67f5bf3</title>
<path fill="none" stroke="#000000" d="M190.9277,-291.4297C198.3934,-281.4754 208.4368,-268.0842 216.9474,-256.7368"/>
<polygon fill="#000000" stroke="#000000" points="219.8885,-258.6486 223.0885,-248.5486 214.2885,-254.4486 219.8885,-258.6486"/>
</g>
<!-- 6494b2a1552a41a284ac412924370d06 -->
<g id="node12" class="node">
<title>6494b2a1552a41a284ac412924370d06</title>
<ellipse fill="#ffffff" stroke="#000000" cx="166" cy="-162" rx="18" ry="18"/>
<text text-anchor="middle" x="166" y="-158.3" font-family="Times,serif" font-size="14.00" fill="#000000">C</text>
</g>
<!-- f35e9980e60d4239944cbcc8dee60c3e&#45;&gt;6494b2a1552a41a284ac412924370d06 -->
<g id="edge12" class="edge">
<title>f35e9980e60d4239944cbcc8dee60c3e&#45;&gt;6494b2a1552a41a284ac412924370d06</title>
<path fill="none" stroke="#000000" d="M176.5393,-216.2022C174.9912,-208.2406 173.1297,-198.6671 171.4047,-189.7957"/>
<polygon fill="#000000" stroke="#000000" points="174.8138,-188.9906 169.4694,-179.8425 167.9425,-190.3268 174.8138,-188.9906"/>
</g>
<!-- 3953ff90b1374b63804dfdf2fa82dd85 -->
<g id="node16" class="node">
<title>3953ff90b1374b63804dfdf2fa82dd85</title>
<ellipse fill="#ffffff" stroke="#000000" cx="220" cy="-162" rx="18" ry="18"/>
<text text-anchor="middle" x="220" y="-158.3" font-family="Times,serif" font-size="14.00" fill="#000000">c</text>
</g>
<!-- f35e9980e60d4239944cbcc8dee60c3e&#45;&gt;3953ff90b1374b63804dfdf2fa82dd85 -->
<g id="edge13" class="edge">
<title>f35e9980e60d4239944cbcc8dee60c3e&#45;&gt;3953ff90b1374b63804dfdf2fa82dd85</title>
<path fill="none" stroke="#000000" d="M188.8773,-218.0209C193.9524,-208.8857 200.4285,-197.2286 206.1577,-186.9162"/>
<polygon fill="#000000" stroke="#000000" points="209.3506,-188.3758 211.1475,-177.9345 203.2315,-184.9763 209.3506,-188.3758"/>
</g>
<!-- b238ee4de8a34a3999d7f964adc93c06 -->
<g id="node13" class="node">
<title>b238ee4de8a34a3999d7f964adc93c06</title>
<ellipse fill="#ffffff" stroke="#000000" cx="146" cy="-90" rx="18" ry="18"/>
<text text-anchor="middle" x="146" y="-86.3" font-family="Times,serif" font-size="14.00" fill="#000000">C</text>
</g>
<!-- 6494b2a1552a41a284ac412924370d06&#45;&gt;b238ee4de8a34a3999d7f964adc93c06 -->
<g id="edge10" class="edge">
<title>6494b2a1552a41a284ac412924370d06&#45;&gt;b238ee4de8a34a3999d7f964adc93c06</title>
<path fill="none" stroke="#000000" d="M161.1586,-144.5708C158.8907,-136.4065 156.1354,-126.4873 153.599,-117.3566"/>
<polygon fill="#000000" stroke="#000000" points="156.915,-116.2166 150.8662,-107.5182 150.1704,-118.0902 156.915,-116.2166"/>
</g>
<!-- 0f0dccbd41974458b42d5c3fa8e2e37f -->
<g id="node15" class="node">
<title>0f0dccbd41974458b42d5c3fa8e2e37f</title>
<ellipse fill="#ffffff" stroke="#000000" cx="200" cy="-90" rx="18" ry="18"/>
<text text-anchor="middle" x="200" y="-86.3" font-family="Times,serif" font-size="14.00" fill="#000000">c</text>
</g>
<!-- 6494b2a1552a41a284ac412924370d06&#45;&gt;0f0dccbd41974458b42d5c3fa8e2e37f -->
<g id="edge11" class="edge">
<title>6494b2a1552a41a284ac412924370d06&#45;&gt;0f0dccbd41974458b42d5c3fa8e2e37f</title>
<path fill="none" stroke="#000000" d="M173.7151,-145.6621C177.8724,-136.8584 183.0984,-125.7917 187.7932,-115.8497"/>
<polygon fill="#000000" stroke="#000000" points="190.9742,-117.31 192.0795,-106.7729 184.6445,-114.3209 190.9742,-117.31"/>
</g>
<!-- 2cf5af6a0bf943fd89241e1fa5fed720 -->
<g id="node14" class="node">
<title>2cf5af6a0bf943fd89241e1fa5fed720</title>
<ellipse fill="#ffffff" stroke="#000000" cx="146" cy="-18" rx="18" ry="18"/>
<text text-anchor="middle" x="146" y="-14.3" font-family="Times,serif" font-size="14.00" fill="#000000">d</text>
</g>
<!-- b238ee4de8a34a3999d7f964adc93c06&#45;&gt;2cf5af6a0bf943fd89241e1fa5fed720 -->
<g id="edge9" class="edge">
<title>b238ee4de8a34a3999d7f964adc93c06&#45;&gt;2cf5af6a0bf943fd89241e1fa5fed720</title>
<path fill="none" stroke="#000000" d="M146,-71.8314C146,-64.131 146,-54.9743 146,-46.4166"/>
<polygon fill="#000000" stroke="#000000" points="149.5001,-46.4132 146,-36.4133 142.5001,-46.4133 149.5001,-46.4132"/>
</g>
</g>
</svg>
